<?xml version="1.0" encoding="utf-8"?>
<!-- Generator: Adobe Illustrator 21.0.0, SVG Export Plug-In . SVG Version: 6.00 Build 0)  -->
<svg version="1.1" id="Layer_1" xmlns="http://www.w3.org/2000/svg" xmlns:xlink="http://www.w3.org/1999/xlink" x="0px" y="0px"
	 viewBox="0 0 74.9 22.8" style="enable-background:new 0 0 74.9 22.8;" xml:space="preserve">
<style type="text/css">
	.st0{opacity:0.6;}
	.st1{fill:#FFFFFF;stroke:#000000;stroke-width:0.25;stroke-miterlimit:10;}
</style>
<g class="st0">
	<path class="st1" d="M17,18.3H8.3l1.3-3.6h1.6l0-1h-3l-0.7,1h1.1l-1.3,3.6H0.8l1.3-3.6h1.2l7.5-10.3h5.8v10.3h1.6L17,18.3z
		 M9.6,11.7h1.8l0.2-3.1L9.6,11.7z"/>
	<path class="st1" d="M31.4,16.7c-0.2,0.4-0.5,0.8-0.9,1c-0.4,0.3-0.8,0.5-1.3,0.6c-0.5,0.1-1,0.2-1.7,0.2c-0.7,0-1.4-0.2-1.8-0.5
		c-0.5-0.3-0.8-0.7-0.9-1.3c-0.4,0.6-0.9,1-1.5,1.3s-1.1,0.5-1.7,0.5c-0.7,0-1.3-0.2-1.7-0.6c-0.4-0.4-0.7-1-0.7-1.7
		c0-0.6,0.2-1.4,0.6-2.3l0.7-1.4c0.1-0.2,0.1-0.3,0.2-0.5c0.1-0.2,0.1-0.3,0.1-0.4s0-0.2,0-0.3c0-0.1-0.1-0.1-0.2-0.1
		c-0.1,0-0.2,0-0.3,0s-0.2,0.1-0.3,0.2c-0.1,0.1-0.2,0.2-0.3,0.4c-0.1,0.2-0.2,0.4-0.3,0.7H18l0.3-0.8c0.5-1.1,1.2-2,1.9-2.5
		c0.8-0.6,1.6-0.8,2.6-0.8c0.6,0,1.2,0.2,1.6,0.6c0.4,0.4,0.6,1,0.6,1.7c0,0.3,0,0.7-0.1,1.1c-0.1,0.4-0.2,0.8-0.4,1.2l-0.6,1.4
		c-0.1,0.2-0.1,0.3-0.2,0.4c0,0.1,0,0.2,0,0.4s0,0.3,0.1,0.4c0.1,0.1,0.2,0.1,0.3,0.1c0.1,0,0.2,0,0.3,0c0.1,0,0.2-0.1,0.3-0.2
		c0.1-0.1,0.2-0.2,0.3-0.4c0.1-0.2,0.2-0.4,0.3-0.7l2.1-5.8h4.5l-2.2,6.3c-0.1,0.2-0.2,0.5-0.3,0.8c-0.1,0.3-0.1,0.5-0.1,0.7
		c0,0.2,0.1,0.3,0.2,0.3c0.1,0,0.2,0,0.3,0c0.1,0,0.2-0.1,0.2-0.2c0.1-0.1,0.2-0.2,0.2-0.4c0.1-0.2,0.2-0.4,0.3-0.7H32
		C31.8,15.8,31.6,16.3,31.4,16.7z"/>
	<path class="st1" d="M41.8,11.4c-0.1,0.2-0.2,0.4-0.3,0.5c-0.1,0.1-0.3,0.2-0.4,0.3c-0.2,0.1-0.3,0.1-0.5,0.1
		c-0.4,0-0.8-0.1-1.1-0.4c-0.3-0.2-0.5-0.6-0.5-1c0-0.2,0-0.3,0-0.4c0-0.1,0-0.2,0.1-0.2c0-0.1,0-0.2-0.2-0.3
		C38.8,10,38.6,10,38.3,10c-0.4,0-0.6,0.1-0.8,0.2s-0.2,0.4-0.2,0.7c0,0.2,0.1,0.4,0.3,0.5c0.2,0.2,0.4,0.3,0.7,0.5
		c0.3,0.2,0.6,0.4,0.9,0.6c0.3,0.2,0.6,0.4,0.9,0.7c0.3,0.3,0.5,0.5,0.7,0.9c0.2,0.3,0.3,0.7,0.3,1.1c0,1.1-0.5,1.9-1.4,2.5
		c-0.9,0.6-2.2,0.9-3.8,0.9c-1.3,0-2.3-0.2-3-0.6s-1-1-1-1.7c0-0.5,0.1-0.8,0.4-1.2c0.3-0.3,0.6-0.5,1.1-0.5c0.5,0,0.9,0.2,1.2,0.5
		c0.3,0.3,0.5,0.6,0.5,1c0,0.1,0,0.2,0,0.3c0,0.1,0,0.2,0,0.2c-0.1,0.2,0,0.3,0.2,0.3c0.2,0.1,0.4,0.1,0.6,0.1
		c0.2,0,0.4-0.1,0.6-0.2c0.2-0.1,0.3-0.4,0.3-0.7c0-0.2-0.1-0.4-0.3-0.5s-0.4-0.3-0.7-0.5c-0.3-0.2-0.5-0.4-0.9-0.5
		s-0.6-0.4-0.9-0.7c-0.3-0.2-0.5-0.5-0.7-0.8s-0.3-0.7-0.3-1.1c0-0.4,0.1-0.9,0.3-1.3c0.2-0.4,0.5-0.8,0.9-1.2s0.9-0.6,1.5-0.8
		s1.3-0.3,2.1-0.3c0.6,0,1.1,0.1,1.6,0.2s0.9,0.3,1.3,0.5c0.4,0.2,0.6,0.5,0.8,0.8c0.2,0.3,0.3,0.7,0.3,1C42,11,41.9,11.3,41.8,11.4
		z"/>
	<path class="st1" d="M51.3,11.3H49l-1.4,3.9c-0.1,0.2-0.1,0.4-0.2,0.6c-0.1,0.2-0.1,0.4-0.1,0.5c0,0.1,0,0.1,0,0.2
		c0,0.1,0.1,0.1,0.2,0.1c0.1,0,0.2,0,0.3,0c0.1,0,0.2-0.1,0.2-0.2c0.1-0.1,0.2-0.2,0.2-0.4c0.1-0.2,0.2-0.4,0.3-0.7h1.6
		c-0.1,0.6-0.3,1.1-0.6,1.5s-0.5,0.8-0.9,1c-0.4,0.3-0.8,0.5-1.3,0.6s-1,0.2-1.7,0.2c-0.9,0-1.6-0.2-2-0.7c-0.5-0.4-0.7-1-0.7-1.7
		c0-0.2,0-0.5,0.1-0.6c0-0.2,0.1-0.4,0.2-0.6l1.3-3.6h-1.8l1-2.8c0.5,0,0.9-0.1,1.4-0.2c0.4-0.1,0.9-0.3,1.2-0.5
		c0.4-0.2,0.7-0.5,1-0.8C47.7,6.8,47.9,6.4,48,6H51l-0.9,2.6h2.3L51.3,11.3z"/>
	<path class="st1" d="M57.5,17.7c-0.7,0.5-1.5,0.8-2.7,0.8c-0.8,0-1.4-0.2-1.9-0.6s-0.7-1-0.7-1.8c0-0.3,0-0.7,0.1-1
		c0.1-0.4,0.2-0.7,0.4-1.2l0.6-1.5c0.1-0.2,0.2-0.4,0.3-0.6c0.1-0.2,0.1-0.4,0.1-0.5c0-0.1-0.1-0.2-0.2-0.2c-0.1,0-0.2,0-0.3,0
		s-0.2,0.1-0.3,0.2c-0.1,0.1-0.2,0.2-0.3,0.4c-0.1,0.2-0.2,0.4-0.3,0.7h-1.6l0.3-0.8c0.5-1.1,1.2-2,1.9-2.5c0.8-0.6,1.6-0.8,2.6-0.8
		c0.7,0,1.2,0.2,1.6,0.6c0.4,0.4,0.6,1,0.6,1.7c0,0.7-0.2,1.4-0.6,2.3l-0.9,1.9c-0.2,0.3-0.3,0.6-0.3,0.8C56,16,56,16.2,56,16.3
		c0,0.2,0.1,0.3,0.3,0.3c0.1,0,0.2,0,0.3,0c0.1,0,0.2-0.1,0.2-0.2c0.1-0.1,0.1-0.2,0.2-0.4c0.1-0.2,0.2-0.4,0.3-0.7h1.6
		C58.6,16.4,58.1,17.2,57.5,17.7z M59.2,6.5c-0.1,0.2-0.2,0.5-0.4,0.6s-0.4,0.3-0.6,0.4c-0.2,0.1-0.5,0.2-0.8,0.2
		c-0.3,0-0.5-0.1-0.8-0.2c-0.2-0.1-0.5-0.2-0.6-0.4c-0.2-0.2-0.3-0.4-0.4-0.6S55.4,6,55.4,5.7c0-0.3,0.1-0.5,0.2-0.8
		s0.2-0.5,0.4-0.6c0.2-0.2,0.4-0.3,0.6-0.4c0.2-0.1,0.5-0.2,0.8-0.2c0.3,0,0.5,0.1,0.8,0.2c0.2,0.1,0.5,0.2,0.6,0.4s0.3,0.4,0.4,0.6
		c0.1,0.2,0.2,0.5,0.2,0.8C59.4,6,59.3,6.2,59.2,6.5z"/>
	<path class="st1" d="M71.8,17.7c-0.7,0.5-1.7,0.8-2.9,0.8c-0.6,0-1-0.1-1.4-0.3c-0.4-0.2-0.7-0.4-0.9-0.8c-0.2-0.3-0.4-0.7-0.4-1.1
		c0-0.4,0-0.9,0.2-1.4l0.9-2.4c0.1-0.2,0.1-0.3,0.1-0.5c0-0.1,0.1-0.3,0.1-0.4c0-0.3-0.1-0.5-0.3-0.5c-0.1,0-0.2,0-0.3,0
		c-0.1,0-0.2,0.1-0.3,0.2c-0.1,0.1-0.2,0.2-0.3,0.4c-0.1,0.2-0.2,0.4-0.3,0.7l-2.1,5.8h-4.5l2.1-5.8c0.1-0.3,0.2-0.6,0.3-0.9
		s0-0.4-0.2-0.4c-0.1,0-0.2,0-0.3,0c-0.1,0-0.2,0.1-0.2,0.2s-0.2,0.2-0.3,0.4s-0.2,0.4-0.3,0.7h-1.6l0.3-0.8
		c0.4-1.1,0.9-1.9,1.7-2.5c0.7-0.6,1.5-0.9,2.4-0.9c0.5,0,0.9,0.1,1.2,0.2c0.3,0.1,0.6,0.3,0.8,0.6c0.2,0.2,0.4,0.5,0.5,0.8
		c0.1,0.3,0.1,0.6,0.2,0.8c0.4-0.8,1-1.3,1.6-1.8c0.6-0.4,1.3-0.6,2-0.6c0.8,0,1.4,0.2,1.9,0.7S72,10.1,72,11c0,0.6-0.1,1.2-0.4,2
		l-0.8,2.3c-0.1,0.2-0.1,0.4-0.2,0.6c0,0.2-0.1,0.3-0.1,0.5c0,0.2,0.1,0.3,0.2,0.3c0.1,0,0.2,0,0.3,0c0.1,0,0.2-0.1,0.2-0.2
		c0.1-0.1,0.2-0.2,0.3-0.4c0.1-0.2,0.2-0.4,0.3-0.7h1.6C73,16.3,72.5,17.2,71.8,17.7z"/>
</g>
</svg>
